<svg width="51" height="11" viewBox="0 0 51 11" fill="none" xmlns="http://www.w3.org/2000/svg">
<path d="M1.19207 0C1.50305 0.011828 1.76795 0.130108 1.98679 0.354839C2.20562 0.567742 2.3208 0.833871 2.33232 1.15323V4.11613H7.94715V1.15323C7.95867 0.822043 8.07961 0.55 8.30996 0.337097C8.54031 0.112366 8.81673 0 9.13923 0C9.4502 0.011828 9.71511 0.130108 9.93394 0.354839C10.1528 0.567742 10.268 0.833871 10.2795 1.15323V9.84677C10.2104 10.5565 9.83028 10.9409 9.13923 11C8.81673 11 8.53455 10.8935 8.29268 10.6806C8.06233 10.4559 7.94715 10.178 7.94715 9.84677V6.49355H2.33232V9.84677C2.26321 10.5565 1.88313 10.9409 1.19207 11C0.86958 11 0.587398 10.8935 0.345528 10.6806C0.115176 10.4559 0 10.178 0 9.84677V1.15323C0.0115176 0.822043 0.132453 0.55 0.362805 0.337097C0.593157 0.112366 0.86958 0 1.19207 0Z" fill="#7893EA"/>
<path d="M13.5793 0C13.9018 0 14.1782 0.112366 14.4085 0.337097C14.6389 0.55 14.7598 0.822043 14.7713 1.15323V1.49032C14.7598 1.97527 14.7886 2.42473 14.8577 2.83871C14.9383 3.24086 15.1226 3.60161 15.4106 3.92097C15.6985 4.24032 16.0613 4.41183 16.499 4.43548H21.3537V1.18871C21.3537 0.857527 21.4688 0.585484 21.6992 0.372581C21.9411 0.147849 22.2232 0.0354839 22.5457 0.0354839C23.2368 0.0946237 23.6169 0.479032 23.686 1.18871V5.30484C23.686 6.25108 23.5593 7.14409 23.3059 7.98387C23.0755 8.72903 22.6955 9.36183 22.1657 9.88226C21.6474 10.3909 20.9851 10.6688 20.1789 10.7161H13.9593C13.6484 10.7043 13.3835 10.5919 13.1646 10.379C12.9573 10.1543 12.8479 9.88226 12.8364 9.5629C12.8364 9.23172 12.94 8.94785 13.1474 8.71129C13.3662 8.47473 13.6369 8.35054 13.9593 8.33871H19.5915C20.0291 8.31505 20.3919 8.14355 20.6799 7.82419C20.9448 7.52849 21.1233 7.1914 21.2154 6.8129H15.9116C15.1054 6.76559 14.4373 6.48763 13.9075 5.97903C13.3892 5.4586 13.0149 4.82581 12.7846 4.08065C12.5657 3.33548 12.4505 2.54301 12.439 1.70323V1.15323C12.4505 0.833871 12.5657 0.567742 12.7846 0.354839C13.0034 0.130108 13.2683 0.011828 13.5793 0Z" fill="#7893EA"/>
<path d="M28.2815 9.81129C28.2124 10.521 27.8323 10.9054 27.1413 10.9645C26.8188 10.9645 26.5366 10.8581 26.2947 10.6452C26.0644 10.4204 25.9492 10.1425 25.9492 9.81129V1.4371C25.9607 1.10591 26.0816 0.833871 26.312 0.620968C26.5423 0.396237 26.8188 0.283871 27.1413 0.283871H34.3974C35.4109 0.319355 36.1768 0.55 36.6951 0.975806C37.2134 1.38978 37.5877 1.8629 37.8181 2.39516C38.0484 2.92742 38.1636 3.46559 38.1636 4.00968C38.1636 4.57742 38.0484 5.12742 37.8181 5.65968C37.5993 6.19194 37.2249 6.67097 36.6951 7.09677C36.1768 7.51075 35.5146 7.71183 34.7083 7.7H30.3547C30.0322 7.7 29.7615 7.58172 29.5427 7.34516C29.3123 7.12043 29.1972 6.84247 29.1972 6.51129C29.1972 6.18011 29.3066 5.90215 29.5254 5.67742C29.7558 5.44086 30.0322 5.32258 30.3547 5.32258H34.812C35.0308 5.32258 35.2093 5.25161 35.3476 5.10968C35.4973 4.95591 35.6067 4.78441 35.6758 4.59516C35.7449 4.39409 35.7795 4.19301 35.7795 3.99194C35.7795 3.80269 35.7449 3.61344 35.6758 3.42419C35.6067 3.22312 35.4973 3.05161 35.3476 2.90968C35.2093 2.75591 35.0308 2.67312 34.812 2.66129H28.7307C28.4312 2.67312 28.2815 2.82688 28.2815 3.12258V9.81129Z" fill="#7893EA"/>
<path d="M43.2083 0.283871H44.003H49.877C50.1995 0.295699 50.4644 0.419892 50.6717 0.656452C50.8906 0.893011 51 1.17688 51 1.50806C50.9424 2.21774 50.5681 2.60215 49.877 2.66129H43.7957C43.3581 2.68495 42.9953 2.85645 42.7073 3.17581C42.4194 3.49516 42.2063 3.86183 42.0681 4.27581C41.9414 4.67796 41.878 5.09194 41.878 5.51774C41.878 5.94355 41.9414 6.36344 42.0681 6.77742C42.2063 7.17957 42.4194 7.54032 42.7073 7.85968C42.9953 8.17903 43.3581 8.35054 43.7957 8.37419H49.877C50.1995 8.38602 50.4644 8.51021 50.6717 8.74677C50.8906 8.98333 51 9.2672 51 9.59839C50.9885 9.91774 50.8733 10.1898 50.6545 10.4145C50.4472 10.6274 50.188 10.7398 49.877 10.7516H43.5366H43.2083C42.4021 10.7043 41.7341 10.3909 41.2043 9.81129C40.686 9.21989 40.3117 8.55161 40.0813 7.80645C39.8625 7.06129 39.753 6.29839 39.753 5.51774C39.753 4.7371 39.8682 3.97419 40.0986 3.22903C40.3289 2.48387 40.7033 1.82151 41.2215 1.24194C41.7398 0.650538 42.4021 0.331183 43.2083 0.283871ZM50.9654 5.44677C50.9654 5.77796 50.8503 6.05591 50.6199 6.28065C50.4011 6.5172 50.1304 6.63548 49.8079 6.63548H44.5904C44.268 6.63548 43.9915 6.52312 43.7612 6.29839C43.5423 6.06183 43.4329 5.77796 43.4329 5.44677C43.4329 5.11559 43.5423 4.83172 43.7612 4.59516C43.9915 4.37043 44.268 4.25806 44.5904 4.25806H49.8079C50.1304 4.25806 50.4011 4.37634 50.6199 4.6129C50.8503 4.83763 50.9654 5.11559 50.9654 5.44677Z" fill="#7893EA"/>
</svg>
