<svg width="19" height="24" viewBox="0 0 19 24" fill="none" xmlns="http://www.w3.org/2000/svg">
<path d="M9.50005 22.0001C13.6174 22.0001 17 18.7372 17 14.5491C17 13.521 16.9477 12.4188 16.3778 10.7059C15.8079 8.99295 15.6931 8.77185 15.0905 7.71399C14.8331 9.87275 13.4556 10.7725 13.1056 11.0414C13.1056 10.7616 12.2723 7.66799 11.0089 5.81698C9.76855 4.00001 8.08174 2.80797 7.09268 2C7.09268 3.5349 6.66098 5.81698 6.04273 6.97973C5.42447 8.14249 5.30837 8.18484 4.53612 9.05015C3.76391 9.91545 3.40946 10.1827 2.76371 11.2326C2.11798 12.2826 2 13.681 2 14.7091C2 18.8972 5.38267 22.0001 9.50005 22.0001Z" stroke="#C1C1C1" stroke-width="2.2" stroke-linejoin="round"/>
</svg>
