<svg width="18" height="15" viewBox="0 0 18 15" fill="none" xmlns="http://www.w3.org/2000/svg">
<path d="M1.5 9C1.08333 9 0.729333 8.854 0.438 8.562C0.146 8.27067 0 7.91667 0 7.5C0 7.08333 0.146 6.72933 0.438 6.438C0.729333 6.146 1.08333 6 1.5 6C1.91667 6 2.27067 6.146 2.562 6.438C2.854 6.72933 3 7.08333 3 7.5C3 7.91667 2.854 8.27067 2.562 8.562C2.27067 8.854 1.91667 9 1.5 9ZM1.5 3C1.08333 3 0.729333 2.854 0.438 2.562C0.146 2.27067 0 1.91667 0 1.5C0 1.08333 0.146 0.729334 0.438 0.438C0.729333 0.146 1.08333 0 1.5 0C1.91667 0 2.27067 0.146 2.562 0.438C2.854 0.729334 3 1.08333 3 1.5C3 1.91667 2.854 2.27067 2.562 2.562C2.27067 2.854 1.91667 3 1.5 3ZM1.5 15C1.08333 15 0.729333 14.854 0.438 14.562C0.146 14.2707 0 13.9167 0 13.5C0 13.0833 0.146 12.7293 0.438 12.438C0.729333 12.146 1.08333 12 1.5 12C1.91667 12 2.27067 12.146 2.562 12.438C2.854 12.7293 3 13.0833 3 13.5C3 13.9167 2.854 14.2707 2.562 14.562C2.27067 14.854 1.91667 15 1.5 15ZM6 14.5C5.71667 14.5 5.47933 14.404 5.288 14.212C5.096 14.0207 5 13.7833 5 13.5C5 13.2167 5.096 12.9793 5.288 12.788C5.47933 12.596 5.71667 12.5 6 12.5H17C17.2833 12.5 17.5207 12.596 17.712 12.788C17.904 12.9793 18 13.2167 18 13.5C18 13.7833 17.904 14.0207 17.712 14.212C17.5207 14.404 17.2833 14.5 17 14.5H6ZM6 8.5C5.71667 8.5 5.47933 8.404 5.288 8.212C5.096 8.02067 5 7.78333 5 7.5C5 7.21667 5.096 6.979 5.288 6.787C5.47933 6.59567 5.71667 6.5 6 6.5H17C17.2833 6.5 17.5207 6.59567 17.712 6.787C17.904 6.979 18 7.21667 18 7.5C18 7.78333 17.904 8.02067 17.712 8.212C17.5207 8.404 17.2833 8.5 17 8.5H6ZM6 2.5C5.71667 2.5 5.47933 2.40433 5.288 2.213C5.096 2.021 5 1.78333 5 1.5C5 1.21667 5.096 0.979 5.288 0.787C5.47933 0.595667 5.71667 0.5 6 0.5H17C17.2833 0.5 17.5207 0.595667 17.712 0.787C17.904 0.979 18 1.21667 18 1.5C18 1.78333 17.904 2.021 17.712 2.213C17.5207 2.40433 17.2833 2.5 17 2.5H6Z" fill="#242467"/>
</svg>
