<svg width="16" height="16" viewBox="0 0 16 16" fill="none" xmlns="http://www.w3.org/2000/svg">
<circle cx="8" cy="8" r="8" fill="#FBFBFF"/>
<path fill-rule="evenodd" clip-rule="evenodd" d="M8 4C8.11744 4 8.22764 4.05671 8.2959 4.15228L11.9323 9.24319C12.0114 9.35403 12.022 9.49983 11.9597 9.62094C11.8974 9.74206 11.7726 9.81818 11.6364 9.81818H9.81818V11.6364C9.81818 11.8372 9.65537 12 9.45454 12H6.54545C6.34462 12 6.18182 11.8372 6.18182 11.6364V9.81818H4.36364C4.22742 9.81818 4.10263 9.74206 4.0403 9.62094C3.97798 9.49983 3.98856 9.35403 4.06774 9.24319L7.7041 4.15228C7.77235 4.05671 7.88257 4 8 4ZM5.07025 9.09091H6.54545C6.74628 9.09091 8 9.25372 8 9.45455L7.7041 11.1203L7.98937 9.51438C7.98937 9.31355 9.25371 9.09091 9.45454 9.09091H10.9297L8 9.45455L5.07025 9.09091Z" fill="#959DF1"/>
<path d="M8 9.45455C8 9.25372 6.74628 9.09091 6.54545 9.09091H5.07025L8 9.45455ZM8 9.45455L7.7041 11.1203L7.98937 9.51438C7.98937 9.31355 9.25371 9.09091 9.45454 9.09091H10.9297L8 9.45455ZM8 4C8.11744 4 8.22764 4.05671 8.2959 4.15228L11.9323 9.24319C12.0114 9.35403 12.022 9.49983 11.9597 9.62094C11.8974 9.74206 11.7726 9.81818 11.6364 9.81818H9.81818V11.6364C9.81818 11.8372 9.65537 12 9.45454 12H6.54545C6.34462 12 6.18182 11.8372 6.18182 11.6364V9.81818H4.36364C4.22742 9.81818 4.10263 9.74206 4.0403 9.62094C3.97798 9.49983 3.98856 9.35403 4.06774 9.24319L7.7041 4.15228C7.77235 4.05671 7.88257 4 8 4Z" stroke="#959DF1" stroke-width="0.3" stroke-linejoin="round"/>
</svg>
