<svg width="167" height="35" viewBox="0 0 167 35" fill="none" xmlns="http://www.w3.org/2000/svg">
<path d="M3.90346 0C4.92175 0.0376344 5.78918 0.413979 6.50576 1.12903C7.22234 1.80645 7.59948 2.65323 7.6372 3.66935V13.0968H26.023V3.66935C26.0608 2.61559 26.4568 1.75 27.211 1.07258C27.9653 0.357527 28.8705 0 29.9265 0C30.9448 0.0376344 31.8122 0.413979 32.5288 1.12903C33.2454 1.80645 33.6225 2.65323 33.6602 3.66935V31.3306C33.4339 33.5887 32.1894 34.8118 29.9265 35C28.8705 35 27.9465 34.6613 27.1545 33.9839C26.4002 33.2688 26.023 32.3844 26.023 31.3306V20.6613H7.6372V31.3306C7.41091 33.5887 6.16633 34.8118 3.90346 35C2.84745 35 1.92344 34.6613 1.13144 33.9839C0.377145 33.2688 0 32.3844 0 31.3306V3.66935C0.0377145 2.61559 0.433717 1.75 1.18801 1.07258C1.9423 0.357527 2.84745 0 3.90346 0Z" fill="#7893EA"/>
<path d="M44.4654 0C45.5215 0 46.4266 0.357527 47.1809 1.07258C47.9352 1.75 48.3312 2.61559 48.3689 3.66935V4.74194C48.3312 6.28495 48.4255 7.71505 48.6518 9.03226C48.9158 10.3118 49.5192 11.4597 50.4621 12.4758C51.4049 13.4919 52.5929 14.0376 54.0261 14.1129H69.9228V3.78226C69.9228 2.72849 70.2999 1.8629 71.0542 1.18548C71.8462 0.47043 72.7702 0.112903 73.8262 0.112903C76.0891 0.301075 77.3337 1.52419 77.56 3.78226V16.879C77.56 19.8898 77.1451 22.7312 76.3154 25.4032C75.5611 27.7742 74.3165 29.7876 72.5816 31.4435C70.8845 33.0618 68.7159 33.9462 66.0759 34.0968H45.71C44.6917 34.0591 43.8243 33.7016 43.1077 33.0242C42.4289 32.3091 42.0706 31.4435 42.0329 30.4274C42.0329 29.3737 42.3723 28.4704 43.0512 27.7177C43.7677 26.9651 44.654 26.5699 45.71 26.5323H64.1524C65.5856 26.457 66.7736 25.9113 67.7165 24.8952C68.5839 23.9543 69.1685 22.8817 69.4702 21.6774H52.1026C49.4626 21.5269 47.2752 20.6425 45.5403 19.0242C43.8432 17.3683 42.6174 15.3548 41.8631 12.9839C41.1466 10.6129 40.7694 8.0914 40.7317 5.41936V3.66935C40.7694 2.65323 41.1466 1.80645 41.8631 1.12903C42.5797 0.413979 43.4472 0.0376344 44.4654 0Z" fill="#7893EA"/>
<path d="M92.6081 31.2177C92.3818 33.4758 91.1372 34.6989 88.8743 34.8871C87.8183 34.8871 86.8943 34.5484 86.1023 33.871C85.348 33.1559 84.9709 32.2715 84.9709 31.2177V4.57258C85.0086 3.51882 85.4046 2.65323 86.1589 1.97581C86.9132 1.26075 87.8183 0.903226 88.8743 0.903226H112.634C115.953 1.01613 118.461 1.75 120.159 3.10484C121.856 4.42204 123.081 5.92742 123.836 7.62097C124.59 9.31452 124.967 11.0269 124.967 12.7581C124.967 14.5645 124.59 16.3145 123.836 18.0081C123.119 19.7016 121.893 21.2258 120.159 22.5806C118.461 23.8979 116.293 24.5376 113.653 24.5H99.3967C98.3407 24.5 97.4544 24.1237 96.7378 23.371C95.9835 22.6559 95.6064 21.7715 95.6064 20.7177C95.6064 19.664 95.9647 18.7796 96.6812 18.0645C97.4355 17.3118 98.3407 16.9355 99.3967 16.9355H113.992C114.709 16.9355 115.293 16.7097 115.746 16.2581C116.236 15.7688 116.595 15.2231 116.821 14.621C117.047 13.9812 117.16 13.3414 117.16 12.7016C117.16 12.0995 117.047 11.4973 116.821 10.8952C116.595 10.2554 116.236 9.70968 115.746 9.25806C115.293 8.76882 114.709 8.50538 113.992 8.46774H94.0789C93.0984 8.50538 92.6081 8.99462 92.6081 9.93548V31.2177Z" fill="#7893EA"/>
<path d="M141.486 0.903226H144.088H163.323C164.379 0.94086 165.246 1.33602 165.925 2.08871C166.642 2.8414 167 3.74462 167 4.79839C166.811 7.05645 165.586 8.27957 163.323 8.46774H143.41C141.976 8.54301 140.788 9.08871 139.846 10.1048C138.903 11.121 138.205 12.2876 137.752 13.6048C137.338 14.8844 137.13 16.2016 137.13 17.5565C137.13 18.9113 137.338 20.2473 137.752 21.5645C138.205 22.8441 138.903 23.9919 139.846 25.0081C140.788 26.0242 141.976 26.5699 143.41 26.6452H163.323C164.379 26.6828 165.246 27.078 165.925 27.8306C166.642 28.5833 167 29.4866 167 30.5403C166.962 31.5565 166.585 32.422 165.869 33.1371C165.19 33.8145 164.341 34.172 163.323 34.2097H142.561H141.486C138.846 34.0591 136.659 33.0618 134.924 31.2177C133.227 29.336 132.001 27.2097 131.247 24.8387C130.53 22.4677 130.172 20.0403 130.172 17.5565C130.172 15.0726 130.549 12.6452 131.303 10.2742C132.057 7.90323 133.283 5.7957 134.98 3.95161C136.678 2.06989 138.846 1.05376 141.486 0.903226ZM166.887 17.3306C166.887 18.3844 166.51 19.2688 165.755 19.9839C165.039 20.7366 164.153 21.1129 163.097 21.1129H146.012C144.956 21.1129 144.051 20.7554 143.296 20.0403C142.58 19.2876 142.222 18.3844 142.222 17.3306C142.222 16.2769 142.58 15.3737 143.296 14.621C144.051 13.9059 144.956 13.5484 146.012 13.5484H163.097C164.153 13.5484 165.039 13.9247 165.755 14.6774C166.51 15.3925 166.887 16.2769 166.887 17.3306Z" fill="#7893EA"/>
</svg>
