<svg width="40" height="40" viewBox="0 0 50 46" fill="none" xmlns="http://www.w3.org/2000/svg">
<path fill-rule="evenodd" clip-rule="evenodd" d="M35.1932 0.00454566C35.2386 0 35.2863 0 35.3318 0C37.2761 0.00532892 39.1994 0.403 40.9864 1.1692C42.7734 1.9354 44.3874 3.05436 45.7318 4.45908C48.4798 7.32894 50.0095 11.1516 50 15.125C50 18.8863 48.3022 22.6454 46.0704 26.0113C43.8136 29.4159 40.8432 32.6636 37.9386 35.4568C34.5984 38.647 31.048 41.6097 27.3114 44.3249C27.0271 44.532 26.7955 44.6974 26.6246 44.8194L26.5659 44.8613L26.3636 45.0022L26.3091 45.0386L26.2932 45.0499L26.2864 45.0545C25.9061 45.3154 25.4555 45.4545 24.9944 45.4533C24.5333 45.452 24.0834 45.3106 23.7045 45.0476L23.6977 45.0431L23.6818 45.034L23.6273 44.9954C19.5477 42.0731 15.6818 38.8634 12.0591 35.3908C9.15457 32.5909 6.18867 29.3386 3.93186 25.9431C1.70231 22.5909 4.4857e-05 18.85 4.4857e-05 15.125C-0.00954207 11.1516 1.5179 7.32894 4.26595 4.45908C7.00912 1.61363 10.75 0 14.6659 0V2.3099L14.6682 2.27272L14.6705 0C14.716 0.000151473 14.7614 0.00166752 14.8068 0.00454566C17.2867 0.157673 19.6894 0.926276 21.7977 2.24091C22.984 2.98229 24.0604 3.87796 25.0004 4.90088C25.9408 3.87785 27.0177 2.98218 28.2045 2.24091C30.3122 0.926634 32.7141 0.158045 35.1932 0.00454566ZM35.3318 2.29141L35.1932 0.00454566L35.3318 2.27272V2.29141Z" fill="current"/>
</svg>
