<svg width="12" height="16" viewBox="0 0 12 16" fill="none" xmlns="http://www.w3.org/2000/svg">
<path d="M6.00003 14.3334C8.74495 14.3334 11 12.1581 11 9.36609C11 8.68065 10.9652 7.94588 10.5852 6.80391C10.2053 5.66196 10.1288 5.51456 9.72702 4.80933C9.55539 6.2485 8.63705 6.84831 8.40375 7.02757C8.40375 6.84107 7.84821 4.77866 7.00591 3.54465C6.17903 2.33334 5.05449 1.53864 4.39512 1C4.39512 2.02326 4.10732 3.54465 3.69515 4.31982C3.28298 5.09499 3.20558 5.12323 2.69074 5.7001C2.17594 6.27697 1.93964 6.45514 1.50914 7.15507C1.07865 7.85505 1 8.78732 1 9.47276C1 12.2648 3.25511 14.3334 6.00003 14.3334Z" stroke="#7697EC" stroke-width="1.4" stroke-linejoin="round"/>
</svg>
