<svg width="15" height="14" viewBox="0 0 15 14" fill="none" xmlns="http://www.w3.org/2000/svg">
<path d="M10.5995 0.681817V0C10.5859 0 10.5716 6.36579e-08 10.5579 0.0013637L10.5995 0.681817ZM4.40046 0.681817L4.44205 0.0013637C4.42843 0.000500255 4.41479 4.5442e-05 4.40114 0L4.40046 0.681817ZM7.5 12.9545L7.11136 13.5143C7.22502 13.5932 7.35998 13.6356 7.49832 13.636C7.63666 13.6363 7.77184 13.5946 7.88591 13.5163L7.5 12.9545ZM10.5579 0.0013637C9.81421 0.0474135 9.09366 0.27799 8.46136 0.672272L9.18136 1.83C9.62133 1.55533 10.1228 1.39459 10.6404 1.36227L10.5579 0.0013637ZM8.46136 0.672272C7.83215 1.06527 7.30595 1.60292 6.92659 2.24045L8.09727 2.93931C8.37 2.48318 8.74227 2.10341 9.18136 1.83L8.46136 0.672272ZM8.07341 2.24045C7.69424 1.603 7.16828 1.06535 6.53932 0.672272L5.81796 1.83C6.25705 2.10341 6.63 2.48318 6.90273 2.93931L8.07273 2.23977L8.07341 2.24045ZM6.53932 0.672272C5.90682 0.277883 5.18602 0.0473018 4.44205 0.0013637L4.35887 1.36227C4.87653 1.39459 5.37799 1.55533 5.81796 1.83L6.53932 0.672272ZM4.39978 0C3.22501 0 2.10274 0.48409 1.27978 1.33772L2.2616 2.28409C2.53769 1.99464 2.86939 1.76392 3.2368 1.60575C3.60421 1.44759 3.99977 1.36524 4.39978 1.36363V0ZM1.27978 1.33772C0.455371 2.19868 -0.00286264 3.34548 1.34373e-05 4.53749H1.36365C1.36365 3.68795 1.68956 2.87795 2.2616 2.28409L1.27978 1.33772ZM1.34373e-05 4.53749C1.34373e-05 5.65499 0.510694 6.77726 1.17956 7.78294C1.8566 8.80157 2.74637 9.77726 3.61773 10.6173C4.70455 11.659 5.86431 12.6219 7.08818 13.4986L7.10455 13.5102L7.10932 13.5129L7.11068 13.5143L7.5 12.9545L7.88864 12.3948L7.88591 12.392C7.86339 12.3767 7.84112 12.361 7.81909 12.345C7.49302 12.11 7.17182 11.8684 6.85568 11.6202C6.0594 10.9975 5.2948 10.3353 4.56478 9.63612C3.73092 8.83157 2.91614 7.93294 2.31478 7.02817C1.70524 6.11112 1.36365 5.26022 1.36365 4.53749H1.34373e-05ZM7.5 12.9545L7.88659 13.5163L7.88795 13.515L7.89273 13.5116L7.90909 13.5007L7.96977 13.4584C8.02227 13.4209 8.09795 13.367 8.19341 13.2975C9.31441 12.4829 10.3795 11.5941 11.3816 10.637C12.2529 9.79907 13.1441 8.82476 13.8211 7.80339C14.4907 6.79362 15 5.6659 15 4.53749H13.6364C13.6364 5.27385 13.2934 6.13158 12.6845 7.04999C12.0839 7.9568 11.2698 8.85271 10.4366 9.65385C9.41758 10.6266 8.33051 11.5255 7.18364 12.3436L7.12977 12.3811L7.11682 12.3907L7.11409 12.392V12.3927L7.5 12.9545ZM15 4.53749C15.0029 3.34548 14.5439 2.19868 13.7195 1.33772L12.7377 2.28409C13.3172 2.89089 13.6392 3.69846 13.6364 4.53749H15ZM13.7195 1.33772C13.3162 0.916309 12.832 0.580619 12.2959 0.35076C11.7598 0.1209 11.1828 0.00159867 10.5995 0V1.36363C11.3973 1.36363 12.1664 1.69159 12.7384 2.28409L13.7195 1.33772ZM6.92727 2.23977C6.91296 2.26363 6.94091 2.21454 6.97773 2.16886C7.04103 2.09151 7.12072 2.02919 7.21104 1.98639C7.30135 1.94358 7.40005 1.92137 7.5 1.92136V3.28499C7.61981 3.28499 7.73754 3.25373 7.84157 3.1943C7.9456 3.13488 8.03233 3.04933 8.09318 2.94613L8.09727 2.93931L6.92659 2.24045L6.92727 2.23977ZM6.90341 2.93931L6.9075 2.94613C6.92531 2.97564 6.94513 3.00389 6.96682 3.03068C7.01182 3.08522 7.18773 3.28499 7.50068 3.28499V1.92136C7.60074 1.92127 7.69957 1.94343 7.79002 1.98624C7.88047 2.02904 7.96026 2.09142 8.02364 2.16886C8.06114 2.21454 8.08841 2.26431 8.07409 2.23977L6.90341 2.93931Z" fill="#7D74DC"/>
</svg>
