<svg width="50" height="46" viewBox="0 0 50 46" fill="none" xmlns="http://www.w3.org/2000/svg">
<path d="M35.3318 2.27272V0C35.2863 0 35.2386 2.12193e-07 35.1932 0.00454566L35.3318 2.27272ZM14.6682 2.27272L14.8068 0.00454566C14.7614 0.00166752 14.716 0.000151473 14.6705 0L14.6682 2.27272ZM25 43.1817L23.7045 45.0476C24.0834 45.3106 24.5333 45.452 24.9944 45.4533C25.4555 45.4545 25.9061 45.3154 26.2864 45.0545L25 43.1817ZM35.1932 0.00454566C32.7141 0.158045 30.3122 0.926634 28.2045 2.24091L30.6045 6.09999C32.0711 5.18445 33.7426 4.64862 35.4682 4.5409L35.1932 0.00454566ZM28.2045 2.24091C26.1072 3.55089 24.3532 5.34307 23.0886 7.46817L26.9909 9.79771C27.9 8.27726 29.1409 7.01135 30.6045 6.09999L28.2045 2.24091ZM26.9114 7.46817C25.6475 5.34333 23.8943 3.55117 21.7977 2.24091L19.3932 6.09999C20.8568 7.01135 22.1 8.27726 23.0091 9.79771L26.9091 7.4659L26.9114 7.46817ZM21.7977 2.24091C19.6894 0.926276 17.2867 0.157673 14.8068 0.00454566L14.5296 4.5409C16.2551 4.64862 17.9266 5.18445 19.3932 6.09999L21.7977 2.24091ZM14.6659 0C10.75 0 7.00912 1.61363 4.26595 4.45908L7.53867 7.61362C8.45898 6.6488 9.56462 5.87973 10.7893 5.35251C12.014 4.8253 13.3326 4.55079 14.6659 4.54545V0ZM4.26595 4.45908C1.5179 7.32893 -0.00954213 11.1516 4.47909e-05 15.125H4.54549C4.54549 12.2932 5.63185 9.59316 7.53867 7.61362L4.26595 4.45908ZM4.47909e-05 15.125C4.47909e-05 18.85 1.70231 22.5909 3.93186 25.9431C6.18867 29.3386 9.15457 32.5909 12.0591 35.3908C15.6818 38.8634 19.5477 42.0731 23.6273 44.9954L23.6818 45.034L23.6977 45.0431L23.7023 45.0476L25 43.1817L26.2955 41.3158L26.2864 41.3067C26.2113 41.2556 26.1371 41.2034 26.0636 41.1499C24.9767 40.3667 23.9061 39.5612 22.8523 38.734C20.198 36.6584 17.6494 34.4511 15.2159 32.1204C12.4364 29.4386 9.72048 26.4431 7.71594 23.4272C5.68413 20.3704 4.54549 17.5341 4.54549 15.125H4.47909e-05ZM25 43.1817L26.2886 45.0545L26.2932 45.0499L26.3091 45.0386L26.3636 45.0022L26.5659 44.8613C26.7409 44.7363 26.9932 44.5567 27.3114 44.3249C31.048 41.6097 34.5984 38.647 37.9386 35.4568C40.8432 32.6636 43.8136 29.4159 46.0704 26.0113C48.3022 22.6454 50 18.8863 50 15.125H45.4545C45.4545 17.5795 44.3113 20.4386 42.2818 23.5C40.2795 26.5227 37.5659 29.509 34.7886 32.1795C31.3919 35.4221 27.7684 38.4183 23.9455 41.1454L23.7659 41.2704L23.7227 41.3022L23.7136 41.3067V41.309L25 43.1817ZM50 15.125C50.0095 11.1516 48.4798 7.32893 45.7318 4.45908L42.4591 7.61362C44.3906 9.63631 45.4641 12.3282 45.4545 15.125H50ZM45.7318 4.45908C44.3874 3.05436 42.7734 1.9354 40.9864 1.1692C39.1994 0.403 37.2761 0.00532892 35.3318 0V4.54545C37.9909 4.54545 40.5545 5.63863 42.4613 7.61362L45.7318 4.45908ZM23.0909 7.4659C23.0432 7.54544 23.1364 7.38181 23.2591 7.22953C23.4701 6.97171 23.7357 6.76396 24.0368 6.62129C24.3378 6.47861 24.6668 6.40458 25 6.40453V10.95C25.3994 10.95 25.7918 10.8458 26.1386 10.6477C26.4853 10.4496 26.7744 10.1644 26.9773 9.82044L26.9909 9.79771L23.0886 7.46817L23.0909 7.4659ZM23.0114 9.79771L23.025 9.82044C23.0844 9.9188 23.1504 10.013 23.2227 10.1023C23.3727 10.2841 23.9591 10.95 25.0023 10.95V6.40453C25.3358 6.40424 25.6653 6.47811 25.9667 6.6208C26.2682 6.76348 26.5342 6.97141 26.7455 7.22953C26.8705 7.38181 26.9614 7.54771 26.9136 7.4659L23.0114 9.79771Z" fill="white"/>
</svg>
