<svg width="478" height="179" viewBox="0 0 478 179" fill="none" xmlns="http://www.w3.org/2000/svg">
<path d="M207.375 65C209.062 65.0625 210.5 65.6875 211.688 66.875C212.875 68 213.5 69.4062 213.562 71.0938V86.75H244.031V71.0938C244.094 69.3438 244.75 67.9062 246 66.7812C247.25 65.5938 248.75 65 250.5 65C252.188 65.0625 253.625 65.6875 254.812 66.875C256 68 256.625 69.4062 256.688 71.0938V117.031C256.312 120.781 254.25 122.812 250.5 123.125C248.75 123.125 247.219 122.562 245.906 121.438C244.656 120.25 244.031 118.781 244.031 117.031V99.3125H213.562V117.031C213.188 120.781 211.125 122.812 207.375 123.125C205.625 123.125 204.094 122.562 202.781 121.438C201.531 120.25 200.906 118.781 200.906 117.031V71.0938C200.969 69.3438 201.625 67.9062 202.875 66.7812C204.125 65.5938 205.625 65 207.375 65Z" fill="#7893EA"/>
<path d="M274.594 65C276.344 65 277.844 65.5938 279.094 66.7812C280.344 67.9062 281 69.3438 281.062 71.0938V72.875C281 75.4375 281.156 77.8125 281.531 80C281.969 82.125 282.969 84.0312 284.531 85.7188C286.094 87.4062 288.062 88.3125 290.438 88.4375H316.781V71.2812C316.781 69.5312 317.406 68.0938 318.656 66.9688C319.969 65.7812 321.5 65.1875 323.25 65.1875C327 65.5 329.062 67.5312 329.438 71.2812V93.0312C329.438 98.0312 328.75 102.75 327.375 107.188C326.125 111.125 324.062 114.469 321.188 117.219C318.375 119.906 314.781 121.375 310.406 121.625H276.656C274.969 121.562 273.531 120.969 272.344 119.844C271.219 118.656 270.625 117.219 270.562 115.531C270.562 113.781 271.125 112.281 272.25 111.031C273.438 109.781 274.906 109.125 276.656 109.062H307.219C309.594 108.938 311.562 108.031 313.125 106.344C314.562 104.781 315.531 103 316.031 101H287.25C282.875 100.75 279.25 99.2812 276.375 96.5938C273.562 93.8438 271.531 90.5 270.281 86.5625C269.094 82.625 268.469 78.4375 268.406 74V71.0938C268.469 69.4062 269.094 68 270.281 66.875C271.469 65.6875 272.906 65.0625 274.594 65Z" fill="#7893EA"/>
<path d="M354.375 116.844C354 120.594 351.938 122.625 348.188 122.938C346.438 122.938 344.906 122.375 343.594 121.25C342.344 120.062 341.719 118.594 341.719 116.844V72.5938C341.781 70.8438 342.438 69.4062 343.688 68.2812C344.938 67.0938 346.438 66.5 348.188 66.5H387.562C393.062 66.6875 397.219 67.9062 400.031 70.1562C402.844 72.3438 404.875 74.8438 406.125 77.6562C407.375 80.4688 408 83.3125 408 86.1875C408 89.1875 407.375 92.0938 406.125 94.9062C404.938 97.7188 402.906 100.25 400.031 102.5C397.219 104.688 393.625 105.75 389.25 105.688H365.625C363.875 105.688 362.406 105.062 361.219 103.812C359.969 102.625 359.344 101.156 359.344 99.4062C359.344 97.6562 359.938 96.1875 361.125 95C362.375 93.75 363.875 93.125 365.625 93.125H389.812C391 93.125 391.969 92.75 392.719 92C393.531 91.1875 394.125 90.2812 394.5 89.2812C394.875 88.2188 395.062 87.1562 395.062 86.0938C395.062 85.0938 394.875 84.0938 394.5 83.0938C394.125 82.0312 393.531 81.125 392.719 80.375C391.969 79.5625 391 79.125 389.812 79.0625H356.812C355.188 79.125 354.375 79.9375 354.375 81.5V116.844Z" fill="#7893EA"/>
<path d="M435.375 66.5H439.688H471.562C473.312 66.5625 474.75 67.2188 475.875 68.4688C477.062 69.7188 477.656 71.2188 477.656 72.9688C477.344 76.7188 475.312 78.75 471.562 79.0625H438.562C436.188 79.1875 434.219 80.0938 432.656 81.7812C431.094 83.4688 429.938 85.4062 429.188 87.5938C428.5 89.7188 428.156 91.9062 428.156 94.1562C428.156 96.4062 428.5 98.625 429.188 100.812C429.938 102.938 431.094 104.844 432.656 106.531C434.219 108.219 436.188 109.125 438.562 109.25H471.562C473.312 109.312 474.75 109.969 475.875 111.219C477.062 112.469 477.656 113.969 477.656 115.719C477.594 117.406 476.969 118.844 475.781 120.031C474.656 121.156 473.25 121.75 471.562 121.812H437.156H435.375C431 121.562 427.375 119.906 424.5 116.844C421.688 113.719 419.656 110.188 418.406 106.25C417.219 102.312 416.625 98.2812 416.625 94.1562C416.625 90.0312 417.25 86 418.5 82.0625C419.75 78.125 421.781 74.625 424.594 71.5625C427.406 68.4375 431 66.75 435.375 66.5ZM477.469 93.7812C477.469 95.5312 476.844 97 475.594 98.1875C474.406 99.4375 472.938 100.062 471.188 100.062H442.875C441.125 100.062 439.625 99.4688 438.375 98.2812C437.188 97.0312 436.594 95.5312 436.594 93.7812C436.594 92.0312 437.188 90.5312 438.375 89.2812C439.625 88.0938 441.125 87.5 442.875 87.5H471.188C472.938 87.5 474.406 88.125 475.594 89.375C476.844 90.5625 477.469 92.0312 477.469 93.7812Z" fill="#7893EA"/>
<g filter="url(#filter0_d_856_2752)">
<path d="M20 49C20 32.4315 33.4315 19 50 19H129C145.569 19 159 32.4315 159 49V128C159 144.569 145.569 158 129 158H50C33.4315 158 20 144.569 20 128V49Z" fill="url(#paint0_linear_856_2752)"/>
</g>
<g filter="url(#filter1_d_856_2752)">
<path d="M136 82.7959C136 122.836 112.091 97.7958 90 97.7958C67.9086 97.7958 43 133.836 43 93.7958C43 53.7552 67.9086 82.7958 90 82.7958C112.091 82.7958 136 42.7552 136 82.7959Z" fill="white"/>
</g>
<defs>
<filter id="filter0_d_856_2752" x="0" y="0" width="179" height="179" filterUnits="userSpaceOnUse" color-interpolation-filters="sRGB">
<feFlood flood-opacity="0" result="BackgroundImageFix"/>
<feColorMatrix in="SourceAlpha" type="matrix" values="0 0 0 0 0 0 0 0 0 0 0 0 0 0 0 0 0 0 127 0" result="hardAlpha"/>
<feOffset dy="1"/>
<feGaussianBlur stdDeviation="10"/>
<feComposite in2="hardAlpha" operator="out"/>
<feColorMatrix type="matrix" values="0 0 0 0 0.320833 0 0 0 0 0.320833 0 0 0 0 0.320833 0 0 0 0.25 0"/>
<feBlend mode="normal" in2="BackgroundImageFix" result="effect1_dropShadow_856_2752"/>
<feBlend mode="normal" in="SourceGraphic" in2="effect1_dropShadow_856_2752" result="shape"/>
</filter>
<filter id="filter1_d_856_2752" x="39" y="63" width="101" height="55.6913" filterUnits="userSpaceOnUse" color-interpolation-filters="sRGB">
<feFlood flood-opacity="0" result="BackgroundImageFix"/>
<feColorMatrix in="SourceAlpha" type="matrix" values="0 0 0 0 0 0 0 0 0 0 0 0 0 0 0 0 0 0 127 0" result="hardAlpha"/>
<feOffset dy="2"/>
<feGaussianBlur stdDeviation="2"/>
<feComposite in2="hardAlpha" operator="out"/>
<feColorMatrix type="matrix" values="0 0 0 0 0.245833 0 0 0 0 0.245833 0 0 0 0 0.245833 0 0 0 0.25 0"/>
<feBlend mode="normal" in2="BackgroundImageFix" result="effect1_dropShadow_856_2752"/>
<feBlend mode="normal" in="SourceGraphic" in2="effect1_dropShadow_856_2752" result="shape"/>
</filter>
<linearGradient id="paint0_linear_856_2752" x1="29.5" y1="33" x2="152.5" y2="155" gradientUnits="userSpaceOnUse">
<stop stop-color="#7C7CE0"/>
<stop offset="1" stop-color="#7797EC"/>
</linearGradient>
</defs>
</svg>
