<svg width="40" height="40" viewBox="0 0 40 40" fill="none" xmlns="http://www.w3.org/2000/svg">
<mask id="mask0_1376_3013" style="mask-type:luminance" maskUnits="userSpaceOnUse" x="0" y="0" width="40" height="40">
<path d="M0 40L-2.44783e-06 3.8147e-06L40 2.5658e-06L40 40L0 40Z" fill="white"/>
</mask>
<g mask="url(#mask0_1376_3013)">
<mask id="mask1_1376_3013" style="mask-type:luminance" maskUnits="userSpaceOnUse" x="0" y="0" width="40" height="40">
<path d="M40 0L40 40L5.56315e-06 40L3.8147e-06 1.74846e-06L40 0Z" fill="white"/>
</mask>
<g mask="url(#mask1_1376_3013)">
<path d="M5 20C5 28.2843 11.7157 35 20 35C28.2843 35 35 28.2843 35 20C35 11.7157 28.2843 5 20 5C11.7157 5 5 11.7157 5 20Z" stroke="#FBFBFF" stroke-width="3"/>
</g>
<g filter="url(#filter0_d_1376_3013)">
<path d="M17.262 13.6303C17.262 13.425 17.1804 13.2282 17.0353 13.0831C16.8902 12.938 16.6934 12.8564 16.4882 12.8564C16.2829 12.8564 16.0861 12.938 15.941 13.0831C15.7959 13.2282 15.7144 13.425 15.7144 13.6303H17.262ZM15.7144 26.0112C15.7144 26.2164 15.7959 26.4133 15.941 26.5584C16.0861 26.7035 16.2829 26.785 16.4882 26.785C16.6934 26.785 16.8902 26.7035 17.0353 26.5584C17.1804 26.4133 17.262 26.2164 17.262 26.0112H15.7144ZM25.0001 13.6303C25.0001 13.425 24.9186 13.2282 24.7734 13.0831C24.6283 12.938 24.4315 12.8564 24.2263 12.8564C24.021 12.8564 23.8242 12.938 23.6791 13.0831C23.534 13.2282 23.4525 13.425 23.4525 13.6303H25.0001ZM23.4525 26.0112C23.4525 26.2164 23.534 26.4133 23.6791 26.5584C23.8242 26.7035 24.021 26.785 24.2263 26.785C24.4315 26.785 24.6283 26.7035 24.7734 26.5584C24.9186 26.4133 25.0001 26.2164 25.0001 26.0112H23.4525ZM17.262 26.0112V13.6303H15.7144V26.0112H17.262ZM25.0001 26.0112V13.6303H23.4525V26.0112H25.0001Z" fill="#FBFBFF"/>
<path d="M17.262 13.6303C17.262 13.425 17.1804 13.2282 17.0353 13.0831C16.8902 12.938 16.6934 12.8564 16.4882 12.8564C16.2829 12.8564 16.0861 12.938 15.941 13.0831C15.7959 13.2282 15.7144 13.425 15.7144 13.6303M17.262 13.6303H15.7144M17.262 13.6303V26.0112M15.7144 13.6303V26.0112M15.7144 26.0112C15.7144 26.2164 15.7959 26.4133 15.941 26.5584C16.0861 26.7035 16.2829 26.785 16.4882 26.785C16.6934 26.785 16.8902 26.7035 17.0353 26.5584C17.1804 26.4133 17.262 26.2164 17.262 26.0112M15.7144 26.0112H17.262M25.0001 13.6303C25.0001 13.425 24.9186 13.2282 24.7734 13.0831C24.6283 12.938 24.4315 12.8564 24.2263 12.8564C24.021 12.8564 23.8242 12.938 23.6791 13.0831C23.534 13.2282 23.4525 13.425 23.4525 13.6303M25.0001 13.6303H23.4525M25.0001 13.6303V26.0112M23.4525 13.6303V26.0112M23.4525 26.0112C23.4525 26.2164 23.534 26.4133 23.6791 26.5584C23.8242 26.7035 24.021 26.785 24.2263 26.785C24.4315 26.785 24.6283 26.7035 24.7734 26.5584C24.9186 26.4133 25.0001 26.2164 25.0001 26.0112M23.4525 26.0112H25.0001" stroke="#FBFBFF" stroke-width="1.5"/>
</g>
</g>
<defs>
<filter id="filter0_d_1376_3013" x="-0.0356445" y="-2.89355" width="40.7856" height="45.4287" filterUnits="userSpaceOnUse" color-interpolation-filters="sRGB">
<feFlood flood-opacity="0" result="BackgroundImageFix"/>
<feColorMatrix in="SourceAlpha" type="matrix" values="0 0 0 0 0 0 0 0 0 0 0 0 0 0 0 0 0 0 127 0" result="hardAlpha"/>
<feOffset/>
<feGaussianBlur stdDeviation="7.5"/>
<feComposite in2="hardAlpha" operator="out"/>
<feColorMatrix type="matrix" values="0 0 0 0 0.620833 0 0 0 0 0.620833 0 0 0 0 0.620833 0 0 0 0.25 0"/>
<feBlend mode="normal" in2="BackgroundImageFix" result="effect1_dropShadow_1376_3013"/>
<feBlend mode="normal" in="SourceGraphic" in2="effect1_dropShadow_1376_3013" result="shape"/>
</filter>
</defs>
</svg>
