<svg width="56" height="56" viewBox="0 0 56 56" fill="none" xmlns="http://www.w3.org/2000/svg">
<mask id="mask0_1376_3014" style="mask-type:luminance" maskUnits="userSpaceOnUse" x="0" y="0" width="56" height="56">
<path d="M0 56L-2.44783e-06 6.48499e-05L55.9999 6.2402e-05L55.9999 56L0 56Z" fill="white"/>
</mask>
<g mask="url(#mask0_1376_3014)">
<mask id="mask1_1376_3014" style="mask-type:luminance" maskUnits="userSpaceOnUse" x="0" y="0" width="56" height="56">
<path d="M56 0L56 55.9999L6.72977e-05 55.9999L6.48499e-05 2.44783e-06L56 0Z" fill="white"/>
</mask>
<g mask="url(#mask1_1376_3014)">
<path d="M7.00005 28C7.00005 39.5979 16.4021 49 28 49C39.598 49 49 39.5979 49 28C49 16.402 39.598 7 28 7C16.4021 7 7.00005 16.402 7.00005 28Z" stroke="#FBFBFF" stroke-width="3"/>
</g>
<g filter="url(#filter0_d_1376_3014)">
<path d="M24.1667 19.0833C24.1667 18.796 24.0525 18.5205 23.8494 18.3173C23.6462 18.1141 23.3707 18 23.0833 18C22.796 18 22.5205 18.1141 22.3173 18.3173C22.1141 18.5205 22 18.796 22 19.0833H24.1667ZM22 36.4167C22 36.704 22.1141 36.9795 22.3173 37.1827C22.5205 37.3859 22.796 37.5 23.0833 37.5C23.3707 37.5 23.6462 37.3859 23.8494 37.1827C24.0525 36.9795 24.1667 36.704 24.1667 36.4167H22ZM35 19.0833C35 18.796 34.8859 18.5205 34.6827 18.3173C34.4795 18.1141 34.204 18 33.9167 18C33.6293 18 33.3538 18.1141 33.1506 18.3173C32.9475 18.5205 32.8333 18.796 32.8333 19.0833H35ZM32.8333 36.4167C32.8333 36.704 32.9475 36.9795 33.1506 37.1827C33.3538 37.3859 33.6293 37.5 33.9167 37.5C34.204 37.5 34.4795 37.3859 34.6827 37.1827C34.8859 36.9795 35 36.704 35 36.4167H32.8333ZM24.1667 36.4167V19.0833H22V36.4167H24.1667ZM35 36.4167V19.0833H32.8333V36.4167H35Z" fill="#FBFBFF"/>
<path d="M24.1667 19.0833C24.1667 18.796 24.0525 18.5205 23.8494 18.3173C23.6462 18.1141 23.3707 18 23.0833 18C22.796 18 22.5205 18.1141 22.3173 18.3173C22.1141 18.5205 22 18.796 22 19.0833M24.1667 19.0833H22M24.1667 19.0833V36.4167M22 19.0833V36.4167M22 36.4167C22 36.704 22.1141 36.9795 22.3173 37.1827C22.5205 37.3859 22.796 37.5 23.0833 37.5C23.3707 37.5 23.6462 37.3859 23.8494 37.1827C24.0525 36.9795 24.1667 36.704 24.1667 36.4167M22 36.4167H24.1667M35 19.0833C35 18.796 34.8859 18.5205 34.6827 18.3173C34.4795 18.1141 34.204 18 33.9167 18C33.6293 18 33.3538 18.1141 33.1506 18.3173C32.9475 18.5205 32.8333 18.796 32.8333 19.0833M35 19.0833H32.8333M35 19.0833V36.4167M32.8333 19.0833V36.4167M32.8333 36.4167C32.8333 36.704 32.9475 36.9795 33.1506 37.1827C33.3538 37.3859 33.6293 37.5 33.9167 37.5C34.204 37.5 34.4795 37.3859 34.6827 37.1827C34.8859 36.9795 35 36.704 35 36.4167M32.8333 36.4167H35" stroke="#FBFBFF" stroke-width="1.5"/>
</g>
</g>
<defs>
<filter id="filter0_d_1376_3014" x="6.25" y="2.25" width="44.5" height="51" filterUnits="userSpaceOnUse" color-interpolation-filters="sRGB">
<feFlood flood-opacity="0" result="BackgroundImageFix"/>
<feColorMatrix in="SourceAlpha" type="matrix" values="0 0 0 0 0 0 0 0 0 0 0 0 0 0 0 0 0 0 127 0" result="hardAlpha"/>
<feOffset/>
<feGaussianBlur stdDeviation="7.5"/>
<feComposite in2="hardAlpha" operator="out"/>
<feColorMatrix type="matrix" values="0 0 0 0 0.620833 0 0 0 0 0.620833 0 0 0 0 0.620833 0 0 0 0.25 0"/>
<feBlend mode="normal" in2="BackgroundImageFix" result="effect1_dropShadow_1376_3014"/>
<feBlend mode="normal" in="SourceGraphic" in2="effect1_dropShadow_1376_3014" result="shape"/>
</filter>
</defs>
</svg>
