<svg width="16" height="16" viewBox="0 0 16 16" fill="none" xmlns="http://www.w3.org/2000/svg">
<circle cx="8" cy="8" r="8" fill="#FBFBFF"/>
<path d="M9.96274 4.42789C10.1125 4.27812 10.1872 4.20347 10.2618 4.15339C10.4115 4.05338 10.5875 4 10.7676 4C10.9476 4 11.1236 4.05338 11.2733 4.15339C11.348 4.20347 11.4226 4.27812 11.5724 4.42789C11.7217 4.5772 11.7964 4.65231 11.8464 4.72652C11.9465 4.87627 12 5.05236 12 5.23249C12 5.41263 11.9465 5.58871 11.8464 5.73847C11.7964 5.81267 11.7217 5.88778 11.5724 6.03709L6.64055 10.9689C6.52037 11.0896 6.45983 11.1497 6.39018 11.1975C6.32007 11.2453 6.24223 11.2794 6.08655 11.3477L5.66774 11.532C4.76368 11.9299 4.31119 12.1288 4.09132 11.909C3.87099 11.6886 4.06992 11.2366 4.46778 10.3321L4.65215 9.91329C4.72043 9.7576 4.75503 9.67976 4.80237 9.61011C4.85062 9.54001 4.91071 9.47992 5.03135 9.35974L9.96274 4.42789Z" fill="#8C7FE4" stroke="#8C7FE4" stroke-linecap="round"/>
<path d="M8 5L11 8Z" fill="#8C7FE4"/>
<path d="M8 5L11 8" stroke="#FBFBFF"/>
</svg>
