<svg width="56" height="56" viewBox="0 0 56 56" fill="none" xmlns="http://www.w3.org/2000/svg">
<mask id="mask0_1376_3036" style="mask-type:luminance" maskUnits="userSpaceOnUse" x="0" y="0" width="56" height="56">
<path d="M0 56L-2.44783e-06 6.48499e-05L55.9999 6.2402e-05L55.9999 56L0 56Z" fill="white"/>
</mask>
<g mask="url(#mask0_1376_3036)">
<mask id="mask1_1376_3036" style="mask-type:luminance" maskUnits="userSpaceOnUse" x="0" y="0" width="56" height="56">
<path d="M56 0L56 55.9999L6.72977e-05 55.9999L6.48499e-05 2.44783e-06L56 0Z" fill="white"/>
</mask>
<g mask="url(#mask1_1376_3036)">
<path d="M7.00005 28C7.00005 39.5979 16.4021 49 28 49C39.598 49 49 39.5979 49 28C49 16.402 39.598 7 28 7C16.4021 7 7.00005 16.402 7.00005 28Z" stroke="#FBFBFF" stroke-width="3"/>
<path d="M33.334 24.0424L28.14 20.7944C24.983 18.8227 23.4033 17.8357 22.2017 18.503C21 19.168 21 21.03 21 24.7517L21 31.2477C21 34.9693 21 36.8313 22.2017 37.4963C23.4033 38.1637 24.983 37.1767 28.14 35.205L33.334 31.957C36.176 30.1814 37.597 29.2924 37.597 27.9997C37.597 26.707 36.176 25.818 33.334 24.0424Z" fill="#FBFBFF"/>
</g>
</g>
</svg>
