<svg width="16" height="16" viewBox="0 0 16 16" fill="none" xmlns="http://www.w3.org/2000/svg">
<circle cx="8" cy="8" r="8" fill="#FBFBFF"/>
<path d="M7.57433 4.81376C7.74961 4.2714 7.83724 4 8 4C8.16275 4 8.25038 4.2714 8.42566 4.81376L9.01765 6.64787C9.06594 6.7972 9.09008 6.87187 9.1491 6.9148C9.20768 6.95772 9.28637 6.95772 9.44331 6.95772H11.0901C11.6588 6.95772 11.9432 6.95772 11.9933 7.11243C12.0433 7.26713 11.8131 7.43391 11.3521 7.76702L9.94006 8.78825C9.81308 8.88035 9.74959 8.92641 9.72679 8.99526C9.70443 9.06457 9.72857 9.13879 9.77642 9.28813L10.3747 11.1383C10.5477 11.6749 10.634 11.9431 10.5034 12.0379C10.372 12.1332 10.144 11.9686 9.68699 11.6382L8.26201 10.6085C8.13547 10.5173 8.07243 10.4717 8 10.4717C7.92756 10.4717 7.86452 10.5173 7.73798 10.6085L6.313 11.6382C5.85604 11.9682 5.628 12.1332 5.49655 12.0379C5.36554 11.9427 5.45229 11.6749 5.62532 11.1383L6.22357 9.28813C6.27142 9.13879 6.29556 9.06457 6.27276 8.99526C6.2504 8.92641 6.18691 8.88035 6.05993 8.78825L4.64791 7.76702C4.18737 7.43391 3.95666 7.26713 4.00673 7.11243C4.05681 6.95772 4.34118 6.95772 4.90992 6.95772H6.55668C6.71362 6.95772 6.79231 6.95772 6.85089 6.9148C6.90991 6.87187 6.93405 6.7972 6.98234 6.64787L7.57433 4.81376Z" fill="#9A9BEE" stroke="#9A9BEE" stroke-width="1.2" stroke-linecap="round" stroke-linejoin="round"/>
</svg>
