<svg width="16" height="16" viewBox="0 0 16 16" fill="none" xmlns="http://www.w3.org/2000/svg">
<circle cx="8" cy="8" r="8" fill="#FBFBFF"/>
<path d="M5 13V8V13ZM5 8V5C5 4.5285 5 4.293 5.13238 4.1465C5.26475 4 5.47755 4 5.9036 4H10.2345C10.6985 4 10.9308 4 10.9886 4.1545C11.0464 4.3085 10.882 4.4905 10.554 4.8535L9.8374 5.6465C9.68695 5.813 9.6115 5.8965 9.6115 6C9.6115 6.1035 9.68695 6.187 9.8374 6.3535L10.554 7.1465C10.882 7.5095 11.0464 7.6915 10.9886 7.8455C10.9308 8 10.6985 8 10.2341 8H5Z" fill="#A199EB"/>
<path d="M5 13V8M5 8V5C5 4.5285 5 4.293 5.13238 4.1465C5.26475 4 5.47755 4 5.9036 4H10.2345C10.6985 4 10.9308 4 10.9886 4.1545C11.0464 4.3085 10.882 4.4905 10.554 4.8535L9.8374 5.6465C9.68695 5.813 9.6115 5.8965 9.6115 6C9.6115 6.1035 9.68695 6.187 9.8374 6.3535L10.554 7.1465C10.882 7.5095 11.0464 7.6915 10.9886 7.8455C10.9308 8 10.6985 8 10.2341 8H5Z" stroke="#A199EB" stroke-width="1.25" stroke-linecap="round" stroke-linejoin="round"/>
</svg>
