<svg width="21" height="21" viewBox="0 0 21 21" fill="none" xmlns="http://www.w3.org/2000/svg">
<path fill-rule="evenodd" clip-rule="evenodd" d="M4.37472 1C3.82113 1 3.31505 1.31277 3.06748 1.80792L1.07715 5.78857C1.02641 5.89004 1 6.00194 1 6.11538V18.5385C1 19.3457 1.65436 20 2.46154 20H18.5385C19.3457 20 20 19.3457 20 18.5385V6.11538C20 6.00194 19.9735 5.89004 19.9228 5.78857L17.9325 1.80795C17.6849 1.31281 17.1789 1.00004 16.6253 1.00004L10.5 1.00001L4.37472 1ZM4.37472 2.46154L9.76923 2.46155V5.38462H2.91318L4.37472 2.46154ZM11.2308 5.38462V2.46157L16.6253 2.46158L18.0868 5.38462H11.2308ZM10.5 6.84615H18.5385V18.5385H2.46154V6.84615H10.5ZM7.57692 9.76923C7.17333 9.76923 6.84615 10.0964 6.84615 10.5C6.84615 10.9036 7.17333 11.2308 7.57692 11.2308H13.4231C13.8267 11.2308 14.1538 10.9036 14.1538 10.5C14.1538 10.0964 13.8267 9.76923 13.4231 9.76923H7.57692Z" fill="url(#paint0_linear_744_2807)" stroke="url(#paint1_linear_744_2807)" stroke-width="0.5"/>
<defs>
<linearGradient id="paint0_linear_744_2807" x1="2.22581" y1="-10.0228" x2="21.0587" y2="-7.24764" gradientUnits="userSpaceOnUse">
<stop stop-color="#7D74DC"/>
<stop offset="1" stop-color="#7697EC"/>
</linearGradient>
<linearGradient id="paint1_linear_744_2807" x1="2.22581" y1="-10.0228" x2="21.0587" y2="-7.24764" gradientUnits="userSpaceOnUse">
<stop stop-color="#7D74DC"/>
<stop offset="1" stop-color="#7697EC"/>
</linearGradient>
</defs>
</svg>
