<svg width="25" height="22" viewBox="0 0 25 22" fill="none" xmlns="http://www.w3.org/2000/svg">
<path fill-rule="evenodd" clip-rule="evenodd" d="M13.1153 1.1347C12.8114 0.955099 12.4338 0.955099 12.1299 1.1347L1.47597 7.4302C1.18109 7.60444 1.00016 7.9215 1.00016 8.26404C1.00016 8.60657 1.18109 8.92363 1.47597 9.09787L12.1299 15.3934C12.4338 15.573 12.8114 15.573 13.1153 15.3934L23.7692 9.09787C24.0642 8.92363 24.2452 8.60657 24.2452 8.26404C24.2452 7.9215 24.0642 7.60444 23.7692 7.4302L13.1153 1.1347ZM12.6226 13.4345L3.87254 8.26404L12.6226 3.09353L21.3727 8.26404L12.6226 13.4345ZM2.46142 13.7257C2.0009 13.4536 1.40699 13.6063 1.13485 14.0668C0.862729 14.5273 1.01545 15.1213 1.47597 15.3934L12.1299 21.6889C12.4338 21.8685 12.8114 21.8685 13.1153 21.6889L23.7692 15.3934C24.2299 15.1213 24.3825 14.5273 24.1103 14.0668C23.8382 13.6063 23.2443 13.4536 22.7838 13.7257L12.6226 19.73L2.46142 13.7257Z" fill="#9F9F9F" stroke="#9F9F9F" stroke-width="0.3"/>
</svg>
