<svg width="23" height="23" viewBox="0 0 23 23" fill="none" xmlns="http://www.w3.org/2000/svg">
<path fill-rule="evenodd" clip-rule="evenodd" d="M5.92195 1C3.20363 1 1 3.20363 1 5.92195C1 8.64028 3.20363 10.8439 5.92195 10.8439C8.64028 10.8439 10.8439 8.64028 10.8439 5.92195C10.8439 3.20363 8.64028 1 5.92195 1ZM2.96878 5.92195C2.96878 4.29095 4.29095 2.96878 5.92195 2.96878C7.55294 2.96878 8.87512 4.29095 8.87512 5.92195C8.87512 7.55294 7.55294 8.87512 5.92195 8.87512C4.29095 8.87512 2.96878 7.55294 2.96878 5.92195ZM17.7346 1C15.0163 1 12.8127 3.20363 12.8127 5.92195C12.8127 8.64028 15.0163 10.8439 17.7346 10.8439C20.4529 10.8439 22.6566 8.64028 22.6566 5.92195C22.6566 3.20363 20.4529 1 17.7346 1ZM14.7815 5.92195C14.7815 4.29095 16.1036 2.96878 17.7346 2.96878C19.3656 2.96878 20.6878 4.29095 20.6878 5.92195C20.6878 7.55294 19.3656 8.87512 17.7346 8.87512C16.1036 8.87512 14.7815 7.55294 14.7815 5.92195ZM1 17.7346C1 15.0163 3.20363 12.8127 5.92195 12.8127C8.64028 12.8127 10.8439 15.0163 10.8439 17.7346C10.8439 20.4529 8.64028 22.6566 5.92195 22.6566C3.20363 22.6566 1 20.4529 1 17.7346ZM5.92195 14.7815C4.29095 14.7815 2.96878 16.1036 2.96878 17.7346C2.96878 19.3656 4.29095 20.6878 5.92195 20.6878C7.55294 20.6878 8.87512 19.3656 8.87512 17.7346C8.87512 16.1036 7.55294 14.7815 5.92195 14.7815ZM17.7346 12.8127C15.0163 12.8127 12.8127 15.0163 12.8127 17.7346C12.8127 20.4529 15.0163 22.6566 17.7346 22.6566C20.4529 22.6566 22.6566 20.4529 22.6566 17.7346C22.6566 15.0163 20.4529 12.8127 17.7346 12.8127ZM14.7815 17.7346C14.7815 16.1036 16.1036 14.7815 17.7346 14.7815C19.3656 14.7815 20.6878 16.1036 20.6878 17.7346C20.6878 19.3656 19.3656 20.6878 17.7346 20.6878C16.1036 20.6878 14.7815 19.3656 14.7815 17.7346Z" fill="#9F9F9F" stroke="#9F9F9F" stroke-width="0.2"/>
</svg>
