<svg width="19" height="23" viewBox="0 0 19 23" fill="none" xmlns="http://www.w3.org/2000/svg">
<path fill-rule="evenodd" clip-rule="evenodd" d="M9.63711 1C6.47878 1 3.91845 3.56033 3.91845 6.71865C3.91845 9.32617 5.66361 11.5261 8.04965 12.2141C6.166 12.4436 4.55038 13.1099 3.33329 14.3093C1.78427 15.836 1 18.1086 1 21.0743C1 21.4882 1.3355 21.8236 1.74934 21.8236C2.1632 21.8236 2.49868 21.4882 2.49868 21.0743C2.49868 18.3609 3.21306 16.532 4.38527 15.3768C5.55968 14.2194 7.31295 13.6205 9.63703 13.6205C11.9611 13.6205 13.7145 14.2194 14.889 15.3768C16.0611 16.532 16.7756 18.3609 16.7756 21.0743C16.7756 21.4882 17.1109 21.8236 17.5249 21.8236C17.9387 21.8238 18.2742 21.4882 18.2742 21.0744C18.2742 18.1086 17.4899 15.836 15.9409 14.3093C14.7238 13.1099 13.1081 12.4437 11.2245 12.2141C13.6105 11.5261 15.3558 9.32618 15.3558 6.71865C15.3558 3.56033 12.7954 1 9.63711 1ZM5.41713 6.71865C5.41713 4.38803 7.30648 2.49868 9.63711 2.49868C11.9677 2.49868 13.8571 4.38803 13.8571 6.71865C13.8571 9.04928 11.9677 10.9386 9.63711 10.9386C7.30648 10.9386 5.41713 9.04928 5.41713 6.71865Z" fill="url(#paint0_linear_744_2813)" stroke="url(#paint1_linear_744_2813)" stroke-width="0.6"/>
<defs>
<linearGradient id="paint0_linear_744_2813" x1="2.11447" y1="-11.0808" x2="19.351" y2="-8.97378" gradientUnits="userSpaceOnUse">
<stop stop-color="#7D74DC"/>
<stop offset="1" stop-color="#7697EC"/>
</linearGradient>
<linearGradient id="paint1_linear_744_2813" x1="2.11447" y1="-11.0808" x2="19.351" y2="-8.97378" gradientUnits="userSpaceOnUse">
<stop stop-color="#7D74DC"/>
<stop offset="1" stop-color="#7697EC"/>
</linearGradient>
</defs>
</svg>
