<svg width="19" height="23" viewBox="0 0 19 23" fill="none" xmlns="http://www.w3.org/2000/svg">
<path fill-rule="evenodd" clip-rule="evenodd" d="M3.40273 2.60182C2.9604 2.60182 2.60182 2.9604 2.60182 3.40273V19.4209C2.60182 19.8632 2.9604 20.2218 3.40273 20.2218H16.2173C16.6595 20.2218 17.0182 19.8632 17.0182 19.4209V6.93811L12.6819 2.60182H3.40273ZM1 3.40273C1 2.07573 2.07573 1 3.40273 1H13.0136C13.226 1 13.4298 1.08438 13.5799 1.23459L18.2681 5.92274C18.4934 6.14805 18.62 6.45361 18.62 6.77223V19.4209C18.62 20.7478 17.5442 21.8236 16.2173 21.8236H3.40273C2.07573 21.8236 1 20.7478 1 19.4209V3.40273ZM5.405 11.4118C5.405 10.9695 5.76358 10.6109 6.20591 10.6109H9.00909V7.80772C9.00909 7.3654 9.36767 7.00681 9.80999 7.00681C10.2523 7.00681 10.6109 7.3654 10.6109 7.80772V10.6109H13.4141C13.8563 10.6109 14.215 10.9695 14.215 11.4118C14.215 11.8541 13.8563 12.2127 13.4141 12.2127H10.6109V15.0159C10.6109 15.4582 10.2523 15.8168 9.80999 15.8168C9.36767 15.8168 9.00909 15.4582 9.00909 15.0159V12.2127H6.20591C5.76358 12.2127 5.405 11.8541 5.405 11.4118Z" fill="url(#paint0_linear_744_2809)" stroke="url(#paint1_linear_744_2809)" stroke-width="0.5"/>
<defs>
<linearGradient id="paint0_linear_744_2809" x1="2.13677" y1="-11.0808" x2="19.7079" y2="-8.8899" gradientUnits="userSpaceOnUse">
<stop stop-color="#7D74DC"/>
<stop offset="1" stop-color="#7697EC"/>
</linearGradient>
<linearGradient id="paint1_linear_744_2809" x1="2.13677" y1="-11.0808" x2="19.7079" y2="-8.8899" gradientUnits="userSpaceOnUse">
<stop stop-color="#7D74DC"/>
<stop offset="1" stop-color="#7697EC"/>
</linearGradient>
</defs>
</svg>
